<svg width="20" height="20" viewBox="0 0 20 20" fill="none" xmlns="http://www.w3.org/2000/svg">
<rect width="20" height="20" fill="white"/>
<path d="M10.4995 8.87346L9.56389 8.77214C9.43589 8.75829 9.32764 8.67413 9.27849 8.55516C9.2779 8.55375 9.2773 8.55231 9.27674 8.55091C9.22741 8.43197 9.24439 8.29595 9.32511 8.19565L9.91503 7.46247C10.0263 7.32423 10.0155 7.12441 9.89 6.99893L8.78571 5.89464C8.66024 5.76917 8.46044 5.75838 8.32217 5.86961L7.58868 6.45978C7.48862 6.54029 7.35299 6.55737 7.23423 6.50851C7.23293 6.50798 7.23163 6.50745 7.23033 6.50692C7.11094 6.45792 7.02646 6.34949 7.01257 6.22117L6.91122 5.28518C6.89213 5.10876 6.7432 4.9751 6.56577 4.9751H5.00406C4.82663 4.9751 4.67771 5.10876 4.65862 5.28518L4.55726 6.22117C4.54337 6.34946 4.45886 6.45792 4.33947 6.50692C4.33817 6.50745 4.33687 6.50798 4.3356 6.50851C4.21684 6.55741 4.08121 6.54029 3.98116 6.45978L3.24759 5.86961C3.10935 5.75838 2.90953 5.76917 2.78409 5.89464L1.6798 6.99893C1.55432 7.12441 1.54353 7.32423 1.65477 7.46247L2.24469 8.19565C2.32541 8.29599 2.34239 8.43197 2.29306 8.55091C2.29246 8.55231 2.2919 8.55375 2.2913 8.55516C2.24212 8.67413 2.13391 8.75829 2.00591 8.77214L1.07029 8.87346C0.89388 8.89255 0.760216 9.04148 0.760216 9.21891V10.7806C0.760216 10.9581 0.89388 11.107 1.07029 11.1261L2.00587 11.2273C2.13387 11.2412 2.24212 11.3254 2.29127 11.4443C2.29187 11.4457 2.29243 11.4472 2.29303 11.4486C2.34235 11.5675 2.32537 11.7035 2.24465 11.8039L1.65473 12.5371C1.5435 12.6753 1.55429 12.8751 1.67976 13.0006L2.78405 14.1049C2.90953 14.2304 3.10935 14.2411 3.24759 14.1299L3.98109 13.5397C4.08114 13.4592 4.21677 13.4421 4.33553 13.491C4.33683 13.4915 4.33813 13.4921 4.33943 13.4926C4.45882 13.5416 4.5433 13.65 4.55719 13.7784L4.65855 14.7144C4.67764 14.8908 4.82656 15.0244 5.00399 15.0244H6.5657C6.74313 15.0244 6.89206 14.8908 6.91115 14.7144L7.0125 13.7784C7.02639 13.6501 7.11087 13.5416 7.23026 13.4926C7.23156 13.4921 7.23286 13.4915 7.23413 13.491C7.35288 13.4421 7.48851 13.4592 7.5886 13.5397L8.3221 14.1299C8.46034 14.2411 8.66017 14.2304 8.78564 14.1049L9.88993 13.0006C10.0154 12.8751 10.0262 12.6753 9.91496 12.5371L9.32504 11.8039C9.24432 11.7036 9.22734 11.5676 9.27666 11.4486C9.27723 11.4472 9.27783 11.4458 9.27842 11.4443C9.32761 11.3254 9.43582 11.2412 9.56382 11.2273L10.4994 11.1261C10.6758 11.1069 10.8095 10.958 10.8095 10.7806V9.21891C10.8095 9.04148 10.6759 8.89255 10.4995 8.87346ZM5.78488 11.5663C4.91972 11.5663 4.21836 10.8649 4.21836 9.99976C4.21836 9.1346 4.91972 8.43324 5.78488 8.43324C6.65004 8.43324 7.35141 9.1346 7.35141 9.99976C7.35141 10.8649 6.65004 11.5663 5.78488 11.5663Z" fill="#334D8F"/>
<path d="M19.0805 10.8445L18.4382 10.3373C18.3359 10.2565 18.2791 10.1327 18.279 10.0023C18.279 10.0009 18.279 9.99953 18.279 9.99813C18.2788 9.86745 18.3357 9.74328 18.4382 9.66231L19.0805 9.15508C19.2276 9.03892 19.2796 8.8392 19.2079 8.66606L18.9257 7.98494C18.854 7.81176 18.676 7.70735 18.4899 7.72922L17.6771 7.8247C17.5473 7.83996 17.4193 7.79236 17.3271 7.69979C17.3261 7.6988 17.3251 7.69782 17.3241 7.69687C17.232 7.60462 17.1846 7.47686 17.1998 7.34738L17.2953 6.53461C17.3171 6.34849 17.2127 6.17046 17.0395 6.09874L16.3584 5.81665C16.1853 5.74493 15.9856 5.79696 15.8694 5.94402L15.3622 6.58625C15.2814 6.68859 15.1575 6.74537 15.0271 6.74544C15.0257 6.74544 15.0244 6.74544 15.023 6.74544C14.8923 6.74565 14.7682 6.6888 14.6872 6.58625L14.1799 5.94398C14.0638 5.79689 13.864 5.74486 13.6909 5.81658L13.0098 6.09871C12.8366 6.17042 12.7322 6.34846 12.754 6.53461L12.8495 7.34742C12.8648 7.47718 12.8172 7.60518 12.7246 7.69743C12.7236 7.69842 12.7226 7.6994 12.7217 7.70039C12.6294 7.79257 12.5017 7.83996 12.3722 7.82473L11.5594 7.72925C11.3732 7.70738 11.1953 7.81183 11.1235 7.98498L10.8414 8.66609C10.7697 8.83924 10.8217 9.03899 10.9688 9.15515L11.611 9.66235C11.7134 9.74317 11.7702 9.86699 11.7702 9.99739C11.7702 9.99879 11.7702 10.0002 11.7702 10.0015C11.7705 10.1322 11.7136 10.2564 11.611 10.3373L10.9688 10.8446C10.8217 10.9607 10.7696 11.1605 10.8414 11.3336L11.1235 12.0147C11.1952 12.1879 11.3732 12.2923 11.5594 12.2704L12.3722 12.175C12.502 12.1597 12.63 12.2073 12.7222 12.2999C12.7232 12.3009 12.7242 12.3018 12.7251 12.3028C12.8173 12.395 12.8647 12.5228 12.8495 12.6523L12.754 13.4651C12.7321 13.6512 12.8366 13.8292 13.0097 13.901L13.6908 14.1831C13.864 14.2548 14.0637 14.2028 14.1799 14.0557L14.6871 13.4134C14.7679 13.3111 14.8917 13.2543 15.0221 13.2543C15.0235 13.2543 15.0249 13.2543 15.0263 13.2543C15.1569 13.254 15.2811 13.3109 15.3621 13.4134L15.8693 14.0557C15.9855 14.2028 16.1852 14.2548 16.3584 14.1831L17.0395 13.901C17.2127 13.8293 17.3171 13.6512 17.2952 13.4651L17.1998 12.6523C17.1845 12.5226 17.2321 12.3945 17.3247 12.3023C17.3256 12.3013 17.3266 12.3003 17.3276 12.2994C17.4199 12.2072 17.5476 12.1598 17.6771 12.175L18.4899 12.2705C18.6761 12.2924 18.8541 12.1879 18.9258 12.0148L19.2079 11.3337C19.2796 11.1604 19.2276 10.9607 19.0805 10.8445ZM15.4411 11.2133C14.7877 11.4839 14.0387 11.1736 13.7681 10.5203C13.4974 9.86689 13.8077 9.11789 14.4611 8.84725C15.1144 8.57662 15.8634 8.88687 16.1341 9.54025C16.4047 10.1936 16.0944 10.9427 15.4411 11.2133Z" fill="#334D8F"/>
</svg>
