<svg width="15" height="15" viewBox="0 0 15 15" fill="none" xmlns="http://www.w3.org/2000/svg">
<g id="Icons">
<path id="Subtract" fill-rule="evenodd" clip-rule="evenodd" d="M3.03381 5C2.39382 5 1.875 5.51882 1.875 6.15881V9.28571C1.875 9.48469 1.875 9.58417 1.87972 9.66821C1.96533 11.1927 3.18231 12.4097 4.70679 12.4953C4.79083 12.5 4.89031 12.5 5.08929 12.5H9.91072C10.1097 12.5 10.2092 12.5 10.2932 12.4953C11.8177 12.4097 13.0347 11.1927 13.1203 9.66821C13.125 9.58417 13.125 9.48469 13.125 9.28571V6.15881C13.125 5.51882 12.6062 5 11.9662 5C11.5273 5 11.126 4.75201 10.9297 4.35942L10.4167 3.33333C10.1613 2.82261 9.63931 2.5 9.06831 2.5H5.93169C5.36069 2.5 4.83869 2.82261 4.58333 3.33333L4.07029 4.35942C3.87399 4.75201 3.47274 5 3.03381 5ZM8 8.125C8 8.40114 7.77614 8.625 7.5 8.625C7.22386 8.625 7 8.40114 7 8.125C7 7.84886 7.22386 7.625 7.5 7.625C7.77614 7.625 8 7.84886 8 8.125ZM10 8.125C10 9.50571 8.88071 10.625 7.5 10.625C6.11929 10.625 5 9.50571 5 8.125C5 6.74429 6.11929 5.625 7.5 5.625C8.88071 5.625 10 6.74429 10 8.125Z" fill="#F8F8FA"/>
</g>
</svg>
