<svg width="20" height="20" viewBox="0 0 20 20" fill="none" xmlns="http://www.w3.org/2000/svg">
<path d="M16.364 3.63602C14.6641 1.93614 12.404 1 10 1C7.59602 1 5.33593 1.93614 3.63602 3.63602C1.93614 5.33593 1 7.59602 1 10C1 12.404 1.93614 14.6641 3.63602 16.364C5.33593 18.0639 7.59602 19 10 19C12.404 19 14.6641 18.0639 16.364 16.364C18.0639 14.6641 19 12.404 19 10C19 7.59602 18.0639 5.33593 16.364 3.63602ZM10 18.2829C5.43282 18.2829 1.71712 14.5672 1.71712 10C1.71712 5.43278 5.43282 1.71712 10 1.71712C14.5672 1.71712 18.2829 5.43282 18.2829 10C18.2829 14.5672 14.5672 18.2829 10 18.2829Z" fill="#334D8F"/>
<path d="M10 1.91211C5.54044 1.91211 1.91235 5.5402 1.91235 9.99977C1.91235 14.4593 5.54044 18.0874 10 18.0874C14.4596 18.0874 18.0877 14.4593 18.0877 9.99977C18.0877 5.5402 14.4596 1.91211 10 1.91211ZM10 17.2906C5.97982 17.2906 2.70919 14.02 2.70919 9.99977C2.70919 5.97957 5.97982 2.70895 10 2.70895C14.0202 2.70895 17.2908 5.97957 17.2908 9.99977C17.2908 14.02 14.0202 17.2906 10 17.2906Z" fill="#334D8F"/>
<path d="M10.3025 9.36268V6.43002C11.1893 6.47732 11.5441 6.86756 11.7569 6.86756C11.9698 6.86756 12.0998 6.58377 12.0998 6.43002C12.0998 6.03982 11.1538 5.7442 10.3024 5.70869V5.3658C10.3024 5.24752 10.1605 5.14111 10.0304 5.14111C9.87664 5.14111 9.75839 5.24756 9.75839 5.3658V5.73236C8.72961 5.80334 7.60621 6.27635 7.60621 7.76631C7.60621 9.27994 8.71777 9.63471 9.75839 10.0013V13.4425C8.29211 13.407 8.03195 12.4728 7.74812 12.4728C7.57074 12.4728 7.39339 12.7212 7.39339 12.9104C7.39339 13.3361 8.26851 14.1757 9.75847 14.1875V14.6131C9.75847 14.7314 9.87675 14.8378 10.0305 14.8378C10.1605 14.8378 10.3025 14.7314 10.3025 14.6131V14.1519C11.485 13.9982 12.3127 13.2651 12.3127 11.8342C12.3127 10.2141 11.284 9.71748 10.3025 9.36268ZM9.78214 9.18541C9.01351 8.91342 8.35132 8.61779 8.35129 7.69541C8.35129 6.82033 9.03718 6.50107 9.78214 6.44193V9.18541ZM10.267 13.4189V10.1906C10.9765 10.4862 11.5559 10.8764 11.556 11.9053C11.556 12.7803 11.0948 13.2888 10.267 13.4189Z" fill="#334D8F"/>
<path d="M16.2976 11.2888C16.0852 11.2314 15.8665 11.3573 15.8092 11.5697C15.5684 12.4633 15.1141 13.303 14.4953 13.9982C14.349 14.1625 14.3637 14.4144 14.528 14.5606C14.6039 14.6282 14.6985 14.6614 14.7927 14.6614C14.9025 14.6614 15.0118 14.6163 15.0905 14.5279C15.7911 13.7407 16.3057 12.7895 16.5785 11.7771C16.6359 11.5647 16.51 11.346 16.2976 11.2888Z" fill="#334D8F"/>
<path d="M16.4143 9.60156C16.1943 9.60156 16.0159 9.77992 16.0159 9.99996C16.0159 10.0623 16.015 10.1252 16.0131 10.187C16.0064 10.4069 16.1792 10.5907 16.3991 10.5974C16.4033 10.5975 16.4074 10.5976 16.4116 10.5976C16.6259 10.5976 16.8029 10.4271 16.8095 10.2114C16.8117 10.1415 16.8128 10.0704 16.8128 9.99996C16.8127 9.77992 16.6344 9.60156 16.4143 9.60156Z" fill="#334D8F"/>
</svg>
