<svg width="44" height="32" viewBox="0 0 44 32" fill="none" xmlns="http://www.w3.org/2000/svg">
<g id="Group">
<path id="Vector" d="M42 8H2V13.3333H42V8Z" fill="#506C7F"/>
<g id="Group_2">
<path id="Vector_2" d="M1.99999 29.3334C1.99999 30.0694 2.59733 30.6667 3.33333 30.6667H40.6667C41.4027 30.6667 42 30.0694 42 29.3334V14.6667H1.99999V29.3334Z" fill="#B4CCB9"/>
<path id="Vector_3" d="M40.6667 1.33337H3.33333C2.59733 1.33337 2 1.93004 2 2.66671V6.66671H42V2.66671C42 1.93004 41.4027 1.33337 40.6667 1.33337Z" fill="#B4CCB9"/>
</g>
<path id="Vector_4" d="M40.6667 0H3.33333C1.85933 0 0.666664 1.19267 0.666664 2.66667V29.3333C0.666664 30.8073 1.85933 32 3.33333 32H40.6667C42.1407 32 43.3333 30.8073 43.3333 29.3333V2.66667C43.3333 1.19267 42.1407 0 40.6667 0ZM42 29.3333C42 30.0693 41.4027 30.6667 40.6667 30.6667H3.33333C2.59733 30.6667 2 30.0693 2 29.3333V14.6667H42V29.3333ZM42 13.3333H2V8H42V13.3333ZM42 6.66667H2V2.66667C2 1.93 2.59733 1.33333 3.33333 1.33333H40.6667C41.4027 1.33333 42 1.93 42 2.66667V6.66667Z" fill="#394240"/>
<path id="Vector_5" d="M7.99999 21.3333H17.3333C17.702 21.3333 18 21.0353 18 20.6667C18 20.298 17.702 20 17.3333 20H7.99999C7.63133 20 7.33333 20.298 7.33333 20.6667C7.33333 21.0353 7.63133 21.3333 7.99999 21.3333Z" fill="#394240"/>
<path id="Vector_6" d="M20 21.3333H24C24.3687 21.3333 24.6667 21.0353 24.6667 20.6667C24.6667 20.298 24.3687 20 24 20H20C19.6313 20 19.3333 20.298 19.3333 20.6667C19.3333 21.0353 19.6313 21.3333 20 21.3333Z" fill="#394240"/>
<path id="Vector_7" d="M7.99999 25.3333H14.6667C15.0353 25.3333 15.3333 25.0353 15.3333 24.6667C15.3333 24.298 15.0353 24 14.6667 24H7.99999C7.63133 24 7.33333 24.298 7.33333 24.6667C7.33333 25.0353 7.63133 25.3333 7.99999 25.3333Z" fill="#394240"/>
<path id="Vector_8" d="M30.6667 25.3333H36C36.3687 25.3333 36.6667 25.0353 36.6667 24.6667V20.6667C36.6667 20.298 36.3687 20 36 20H30.6667C30.298 20 30 20.298 30 20.6667V24.6667C30 25.0353 30.298 25.3333 30.6667 25.3333ZM31.3333 21.3333H35.3333V24H31.3333V21.3333Z" fill="#394240"/>
<path id="Vector_9" d="M35.3333 21.3334H31.3333V24H35.3333V21.3334Z" fill="#F9EBB2"/>
</g>
</svg>
