<svg width="37" height="36" viewBox="0 0 37 36" fill="none" xmlns="http://www.w3.org/2000/svg">
<g id="Vector">
<path d="M36.5 0H0.5V36H36.5V0Z" fill="#F7E82E"/>
<path fill-rule="evenodd" clip-rule="evenodd" d="M7.75754 13.0461C8.72268 12.5134 10.0743 12.0936 11.1568 12.0936C13.224 12.0936 13.7025 13.0461 14.7183 13.0461C15.734 13.0461 16.7774 12.0936 18.6559 12.0936C20.3653 12.0936 21.2683 13.0461 22.7868 13.0461C24.3087 13.0461 23.9923 12.0936 26.1343 12.0936C28.2659 12.0936 29.2414 13.0461 29.2414 13.0461V15.4744C29.2414 15.4744 28.1037 14.461 26.3149 14.4368C24.5399 14.4161 24.5871 15.4744 22.7914 15.4744C20.9945 15.4744 20.8508 14.4368 18.741 14.4368C16.6324 14.4368 16.3138 15.4744 14.6849 15.4744C13.0514 15.4744 12.7454 14.3943 11.0441 14.4161C9.34272 14.4368 7.75754 15.4744 7.75754 15.4744V13.0461Z" fill="#28A8E0"/>
<path fill-rule="evenodd" clip-rule="evenodd" d="M7.75754 18.7092C8.72268 18.1754 10.0743 17.7579 11.1568 17.7579C13.224 17.7579 13.7025 18.7092 14.7183 18.7092C15.734 18.7092 16.7774 17.7579 18.6559 17.7579C20.3653 17.7579 21.2683 18.7092 22.7868 18.7092C24.3087 18.7092 23.9923 17.7579 26.1343 17.7579C28.2659 17.7579 29.2414 18.7092 29.2414 18.7092V21.1387C29.2414 21.1387 28.1037 20.1184 26.3149 20.1C24.5399 20.0827 24.5871 21.1387 22.7914 21.1387C20.9945 21.1387 20.8508 20.1 18.741 20.1C16.6324 20.1 16.3138 21.1387 14.6849 21.1387C13.0514 21.1387 12.7454 20.0609 11.0441 20.0827C9.34272 20.1 7.75754 21.1387 7.75754 21.1387V18.7092Z" fill="#28A8E0"/>
<path fill-rule="evenodd" clip-rule="evenodd" d="M7.75754 24.3677C8.72268 23.8317 10.0743 23.4153 11.1568 23.4153C13.224 23.4153 13.7025 24.3677 14.7183 24.3677C15.734 24.3677 16.7774 23.4153 18.6559 23.4153C20.3653 23.4153 21.2683 24.3677 22.7868 24.3677C24.3087 24.3677 23.9923 23.4153 26.1343 23.4153C28.2659 23.4153 29.2414 24.3677 29.2414 24.3677V26.8042C29.2414 26.8042 28.1037 25.7827 26.3149 25.7608C24.5399 25.7424 24.5871 26.8042 22.7914 26.8042C20.9945 26.8042 20.8508 25.7608 18.741 25.7608C16.6324 25.7608 16.3138 26.8042 14.6849 26.8042C13.0514 26.8042 12.7454 25.7228 11.0441 25.7424C9.34272 25.7608 7.75754 26.8042 7.75754 26.8042V24.3677Z" fill="#28A8E0"/>
<path fill-rule="evenodd" clip-rule="evenodd" d="M17.4814 32.2223L20.2065 18.5297L10.5241 22.7883L16.1826 4.8096H20.792L15.4199 17.2736L24.9804 13.4061L17.4814 32.2223Z" fill="#E62A2B"/>
</g>
</svg>
