<svg width="33" height="31" viewBox="0 0 33 31" fill="none" xmlns="http://www.w3.org/2000/svg">
<g id="Vector">
<path d="M15.2777 14.8119L0.457542 28.4287C0.91291 29.9136 2.486 31 4.30748 31C5.05263 31 5.75638 30.8189 6.33594 30.5292L6.37734 30.493L23.019 22.1635L15.2777 14.8119Z" fill="#EA4335"/>
<path d="M30.2635 12.4942L23.0604 8.87266L14.9465 15.1016L23.0604 22.1635L30.2221 18.5783C31.464 17.9988 32.3333 16.84 32.3333 15.5362C32.3333 14.1963 31.5054 13.0736 30.2635 12.4942Z" fill="#FBBC04"/>
<path d="M0.457529 2.57126C0.374734 2.86098 0.333336 3.1507 0.333336 3.47664V27.5234C0.333336 27.8855 0.374747 28.139 0.457542 28.4287L15.7745 15.1741L0.457529 2.57126Z" fill="#4285F4"/>
<path d="M15.4019 15.5L23.0604 8.87266L6.41872 0.507009C5.79776 0.181075 5.09401 0 4.34886 0C2.48599 0 0.954293 1.08645 0.498924 2.57126L15.4019 15.5Z" fill="#34A853"/>
</g>
</svg>
