<svg width="25" height="25" viewBox="0 0 25 25" fill="none" xmlns="http://www.w3.org/2000/svg">
<path d="M12.4979 2.13636C10.5216 2.13611 8.58642 2.70076 6.92036 3.7638C5.25429 4.82683 3.9268 6.34395 3.09431 8.13636H5.68195C5.89894 8.13636 6.10705 8.22257 6.26049 8.37601C6.41393 8.52944 6.50013 8.73755 6.50013 8.95455C6.50013 9.17154 6.41393 9.37965 6.26049 9.53309C6.10705 9.68653 5.89894 9.77273 5.68195 9.77273H1.59104C1.30171 9.77273 1.02423 9.65779 0.819647 9.45321C0.615062 9.24862 0.500127 8.97115 0.500127 8.68182V4.59091C0.500127 4.37391 0.586328 4.16581 0.739767 4.01237C0.893206 3.85893 1.10131 3.77273 1.31831 3.77273C1.5353 3.77273 1.74341 3.85893 1.89685 4.01237C2.05029 4.16581 2.13649 4.37391 2.13649 4.59091V6.44218C3.19412 4.63301 4.70722 3.13245 6.52512 2.0899C8.34302 1.04735 10.4023 0.499193 12.4979 0.500001C19.1263 0.500001 24.5001 5.87273 24.5001 12.5C24.5001 19.1273 19.1263 24.5 12.4979 24.5C5.96995 24.5 0.6594 19.2887 0.500127 12.8C0.494775 12.583 0.575842 12.3728 0.725496 12.2155C0.87515 12.0583 1.08113 11.967 1.29813 11.9616C1.51512 11.9563 1.72536 12.0374 1.88258 12.187C2.0398 12.3367 2.13114 12.5426 2.13649 12.7596C2.20423 15.4626 3.32564 18.0321 5.26144 19.9198C7.19723 21.8075 9.79412 22.8639 12.4979 22.8636C18.223 22.8636 22.8638 18.224 22.8638 12.5C22.8638 6.776 18.223 2.13636 12.4979 2.13636Z" fill="#C8D1E1"/>
<path d="M13.0456 7.31818C13.0456 7.10119 12.9594 6.89308 12.8059 6.73964C12.6525 6.5862 12.4444 6.5 12.2274 6.5C12.0104 6.5 11.8023 6.5862 11.6489 6.73964C11.4954 6.89308 11.4092 7.10119 11.4092 7.31818V13.3182C11.4092 13.6127 11.5663 13.8833 11.8216 14.0284L15.6398 16.2102C15.8277 16.3118 16.0479 16.3358 16.2534 16.2771C16.4588 16.2185 16.6332 16.0818 16.7392 15.8963C16.8452 15.7108 16.8744 15.4912 16.8206 15.2845C16.7669 15.0777 16.6343 14.9002 16.4514 14.7898L13.0456 12.8436V7.31818Z" fill="#C8D1E1"/>
</svg>
