<svg width="33" height="32" viewBox="0 0 33 32" fill="none" xmlns="http://www.w3.org/2000/svg">
<g id="Group 17">
<g id="Group 16">
<path id="Vector" d="M31.1768 0H1.8433C1.10996 0 0.509964 0.599996 0.509964 1.33334V5.53338H32.51V1.33334C32.5101 0.599996 31.91 0 31.1768 0Z" fill="#40596B"/>
<path id="Vector_2" d="M32.49 5.57935H0.489975V24.0461H32.49V5.57935Z" fill="#CDD6E0"/>
<path id="Vector_3" d="M30.8233 7.24597H2.15662V22.3793H30.8233V7.24597Z" fill="#F2F2F2"/>
<path id="Vector_4" d="M3.57666 4.19993C4.34987 4.19993 4.97668 3.57312 4.97668 2.79991C4.97668 2.02671 4.34987 1.3999 3.57666 1.3999C2.80346 1.3999 2.17665 2.02671 2.17665 2.79991C2.17665 3.57312 2.80346 4.19993 3.57666 4.19993Z" fill="#FFD15C"/>
<path id="Vector_5" d="M7.37667 4.19993C8.14987 4.19993 8.77668 3.57312 8.77668 2.79991C8.77668 2.02671 8.14987 1.3999 7.37667 1.3999C6.60346 1.3999 5.97665 2.02671 5.97665 2.79991C5.97665 3.57312 6.60346 4.19993 7.37667 4.19993Z" fill="#ACB3BA"/>
<path id="Vector_6" d="M11.1767 4.19993C11.9499 4.19993 12.5767 3.57312 12.5767 2.79991C12.5767 2.02671 11.9499 1.3999 11.1767 1.3999C10.4034 1.3999 9.77664 2.02671 9.77664 2.79991C9.77664 3.57312 10.4034 4.19993 11.1767 4.19993Z" fill="#84DBFF"/>
<path id="Vector_7" d="M28.9767 1.33337H17.6433C16.8433 1.33337 16.2433 2.00004 16.2433 2.73339C16.2433 3.46673 16.91 4.1334 17.6433 4.1334H28.9767C29.7767 4.1334 30.3767 3.46673 30.3767 2.73339C30.3767 2.00004 29.7101 1.33337 28.9767 1.33337Z" fill="#ACB3BA"/>
<path id="Vector_8" d="M27.31 21.2C27.31 27.2 22.4433 32 16.51 32C10.51 32 5.71001 27.1332 5.71001 21.2C5.71001 18.9999 6.37668 16.9333 7.50999 15.1999C7.64334 15.0666 7.71002 14.8666 7.8433 14.7333C9.44333 12.5999 11.71 11.1333 14.4433 10.5999H14.51C15.1767 10.4666 15.8433 10.3999 16.51 10.3999C16.7767 10.3999 17.0433 10.3999 17.31 10.3999C17.6433 10.3999 17.9767 10.4666 18.31 10.5332C22.71 11.2666 26.2433 14.6666 27.11 18.9999C27.11 19.1333 27.1767 19.2 27.1767 19.3332C27.2434 19.9333 27.31 20.5333 27.31 21.2Z" fill="#89D6F7"/>
<g id="Group">
<path id="Vector_9" d="M15.91 12.4C15.91 12.7333 15.3767 12.8 15.11 12.8667C14.91 12.9334 14.71 13.1334 14.51 13.3333C14.11 13.7333 13.6433 14.0667 13.11 14.3333C12.5767 14.6 11.91 14.7999 11.5099 14.3333C12.7099 13.8 13.6433 12.7333 14.11 11.4666C13.51 11.8 13.0433 12.3333 12.5766 12.7333C11.9766 13.1999 11.3099 13.6 10.7766 14.1333C10.2433 14.6666 9.77663 15.3333 9.77663 16.1333C9.77663 15.7333 9.50994 15.2666 9.10997 15.0666C8.77666 14.7999 8.30995 14.7333 7.8433 14.7333C7.8433 14.7333 7.8433 14.7333 7.77663 14.7333C9.37666 12.6 11.6433 11.1334 14.3766 10.6H14.4433C14.5767 11.1333 14.91 11.6666 15.3767 11.9333C15.71 12 15.91 12.2 15.91 12.4Z" fill="#55BFE9"/>
<path id="Vector_10" d="M18.31 10.5333C18.5767 10.6667 18.8433 10.8666 19.0433 11.0666C19.11 11.1333 19.11 11.2 19.11 11.2667C19.0433 11.4667 18.7767 11.4 18.5767 11.5334C18.2434 11.6667 18.3767 12.1334 18.6433 12.3334C18.91 12.5334 19.2433 12.5334 19.5767 12.7334C19.7101 12.8 19.7767 12.8667 19.7767 13C19.7767 13.0667 19.7101 13.1334 19.6434 13.2001C19.3101 13.6 18.91 14.0001 18.5767 14.4001C18.5101 14.4667 18.3767 14.6001 18.2434 14.6668C18.1102 14.7334 17.9101 14.7334 17.7101 14.7334C17.0434 14.7334 16.1768 14.8668 15.9768 15.5334C15.9101 15.6668 15.9101 15.8667 15.8435 16.0001C15.7101 16.1334 15.5768 16.1334 15.4435 16.2668C15.3101 16.4668 15.5101 16.7334 15.5101 17.0001C15.5768 17.4001 15.1102 17.7335 14.7768 17.6001C14.7768 17.2001 14.7768 16.7334 14.7101 16.3335C14.7101 16.2668 14.7101 16.2001 14.6435 16.1334C14.5768 16.0668 14.5101 16.0668 14.4434 16.0001C14.0435 15.8667 13.5767 15.8001 13.2434 16.1334C12.9768 16.4667 13.1101 16.9335 13.3101 17.2668C13.5101 17.6001 13.8434 17.9334 13.8434 18.4001C13.8434 18.6001 13.7768 18.8667 13.5767 18.8667C13.3101 18.9334 13.1101 18.5334 13.1101 18.2667C12.8434 19.0001 12.7101 19.9334 12.8434 20.8001C12.2434 20.9334 11.6434 21.1334 11.0434 21.2667C10.8434 21.3334 10.5768 21.4001 10.4434 21.6C10.3101 21.8 10.3101 22 10.3101 22.2C10.3101 22.9334 10.5101 23.6667 10.8434 24.3334C10.9767 24.5334 11.1101 24.8 11.31 24.9334C11.91 25.3333 12.7101 25.1334 13.3767 25.3333C13.9767 25.4667 14.4434 25.9333 14.7101 26.4667C14.9768 27 15.1767 27.6 15.3101 28.2C15.3767 28.4667 15.4434 28.7333 15.6434 28.9333C15.8434 29.1333 16.2434 29.2 16.5101 29.2667C17.0434 29.3334 17.6434 29.4667 18.1101 29.1333C18.5101 28.9333 18.7768 28.4667 19.2434 28.2666C19.5101 28.1333 19.9101 28.2 20.1768 28.1333C20.5101 28.0666 20.8434 27.8 20.7101 27.4666C20.6434 27.1999 20.2434 26.9333 20.3101 26.6666C20.3768 26.4666 20.6434 26.3999 20.8434 26.3332C21.7101 25.9999 22.2435 24.8666 21.7768 23.9999C21.7101 23.8666 21.6435 23.7332 21.5768 23.6C21.5768 23.1333 22.1768 23 22.5101 22.6666C22.7768 22.3333 22.7768 21.9333 22.8434 21.4666C22.9101 21.0666 23.0435 20.5999 23.4434 20.4666C23.8434 20.3333 24.2435 20.6666 24.4434 21C24.6434 21.3333 24.8434 21.7333 25.1768 21.9333C25.1768 21.2 25.1768 20.4666 25.1768 19.8C25.1768 19.5333 25.1768 19.2666 25.3768 19.0666C25.6435 18.7333 26.1768 18.7999 26.5768 18.9333C26.7101 18.9333 26.8435 18.9999 26.9767 18.9999C26.2433 14.6666 22.71 11.2666 18.31 10.5333ZM20.4433 17.5333C20.5767 17.5333 20.71 17.5333 20.8433 17.5333C20.7766 17.8 20.8433 18.0666 21.0433 18.2667C21.11 18.3333 21.2434 18.4 21.31 18.5334C21.51 18.7334 21.5767 19.0667 21.4434 19.3334C21.2434 19.3334 20.9767 19.3334 20.7767 19.3334C20.5767 19.2667 20.3101 19.1334 20.2434 18.9334C20.1767 18.8001 20.1767 18.6667 20.1767 18.5334C20.11 18.1333 20.11 17.7333 20.4433 17.5333ZM17.2433 21.2666C16.91 21.2 16.5767 21 16.2434 20.8C15.7767 20.5333 15.2434 20.4 14.7767 20.4C14.5767 20.4 14.3767 20.4 14.2434 20.4C14.0433 20.3333 13.9101 20.2667 13.8434 20.0667C13.7767 19.8667 13.9101 19.6001 14.1101 19.4667C14.3101 19.3334 14.51 19.2667 14.7101 19.1334L14.7767 18.8001C15.1767 19.2 15.7101 19.5334 16.2434 19.7334C16.5101 19.8668 16.7767 19.9334 17.0434 19.9334C17.3101 19.9334 17.6434 19.9334 17.9101 19.9334C17.9768 19.9334 18.1102 19.9334 18.1768 19.9334C18.3768 19.9334 18.5768 19.9334 18.7768 19.8668C19.0435 19.8668 19.2435 19.8001 19.4435 19.6667C19.5102 19.9334 19.3768 20.2667 19.1768 20.4668C18.9768 20.6668 18.7101 20.8001 18.3768 20.9334C18.11 21.1333 17.6433 21.3333 17.2433 21.2666ZM21.4433 23.4C21.4433 23.4667 21.3766 23.5333 21.31 23.6C21.2433 23.6 21.2433 23.6667 21.1766 23.6667C20.71 23.7334 20.1766 23.8 19.8433 23.4667C19.6433 23.3333 19.5766 23.1334 19.4433 22.9333C19.31 22.6667 19.1766 22.4667 19.0433 22.2C18.91 21.9333 18.7766 21.6667 18.8433 21.4C19.0433 21.4 19.31 21.4 19.51 21.4667L19.5766 21.5333C19.51 21.7334 19.5766 21.9333 19.71 22.0667C19.8433 22.2 20.0434 22.2667 20.1766 22.3334C20.31 22.4 20.4433 22.4667 20.6433 22.5334C20.8433 22.6 21.0433 22.7334 21.2433 22.8667C21.3767 22.9334 21.4433 23.1333 21.4433 23.4ZM22.1767 21.0666C22.11 21.1333 22.11 21.1333 22.0433 21.1333C21.6433 21.2666 21.1099 20.9333 21.0433 20.4666L21.11 20.4C21.4433 20.4 21.7767 20.4 22.0434 20.4C22.11 20.4 22.1767 20.4 22.1767 20.4666C22.2434 20.5333 22.2434 20.6 22.2434 20.6C22.31 20.8 22.31 21 22.1767 21.0666Z" fill="#55BFE9"/>
</g>
</g>
</g>
</svg>
