<svg width="46" height="64" viewBox="0 0 46 64" fill="none" xmlns="http://www.w3.org/2000/svg">
<path d="M32.522 26.9898C31.9709 26.9898 31.5009 26.5476 31.5009 26.0106V17.387C31.5009 12.8698 27.741 9.2056 23.1058 9.2056C18.4707 9.2056 14.7107 12.8856 14.7107 17.387V26.0106C14.7107 26.5476 14.257 26.9898 13.6897 26.9898H8.04976C7.49873 26.9898 7.04495 26.5476 7.04495 26.0106V17.387C7.04495 8.74757 14.257 1.71918 23.122 1.71918C31.9871 1.71918 39.1991 8.74757 39.1991 17.387V26.0106C39.1991 26.5476 38.7454 26.9898 38.1781 26.9898H32.522Z" fill="#5655B9"/>
<path d="M23.122 2.69844C31.4199 2.69844 38.1781 9.28459 38.1781 17.3712V25.9948H32.5381V17.3712C32.5381 12.3171 28.3244 8.1948 23.122 8.1948C17.9359 8.1948 13.7059 12.3013 13.7059 17.3712V25.9948H8.06597V17.3712C8.06597 9.28459 14.808 2.69844 23.122 2.69844ZM23.122 0.739967C13.7059 0.739967 6.04013 8.21059 6.04013 17.387V26.0106C6.04013 27.1004 6.94771 27.9848 8.06597 27.9848H13.7059C14.8242 27.9848 15.7318 27.1004 15.7318 26.0106V17.387C15.7318 13.4227 19.0379 10.1849 23.122 10.1849C27.1899 10.1849 30.5123 13.4227 30.5123 17.387V26.0106C30.5123 27.1004 31.4199 27.9848 32.5381 27.9848H38.1781C39.2964 27.9848 40.2039 27.1004 40.2039 26.0106V17.387C40.2039 8.1948 32.5381 0.739967 23.122 0.739967Z" fill="white"/>
<path d="M4.28985 62.9688C2.92848 62.9688 1.82642 61.8948 1.82642 60.5681V27.4162C1.82642 26.0895 2.92848 25.0155 4.28985 25.0155H41.9543C43.3157 25.0155 44.4177 26.0895 44.4177 27.4162V60.5523C44.4177 61.879 43.3157 62.953 41.9543 62.953H4.28985V62.9688Z" fill="#5655B9"/>
<path d="M41.9543 26.0106C42.7484 26.0106 43.3967 26.6423 43.3967 27.4321V60.5682C43.3967 61.3421 42.7484 61.9896 41.9543 61.9896H4.28984C3.4795 61.9896 2.84744 61.3579 2.84744 60.5682V27.4163C2.84744 26.6423 3.49571 25.9948 4.28984 25.9948H41.9543V26.0106ZM41.9543 24.0363H4.28984C2.37744 24.0363 0.821594 25.5526 0.821594 27.4163V60.5524C0.821594 62.4161 2.37744 63.9323 4.28984 63.9323H41.9543C43.8667 63.9323 45.4225 62.4161 45.4225 60.5524V27.4163C45.4225 25.5526 43.8667 24.0363 41.9543 24.0363Z" fill="white"/>
<path d="M41.9543 26.0106H34.5965V52.1341C34.5965 52.908 33.9482 53.5398 33.1379 53.5398H2.83124V60.5524C2.83124 61.3263 3.47951 61.9738 4.27364 61.9738H41.9381C42.7322 61.9738 43.3805 61.3421 43.3805 60.5524V27.4163C43.3967 26.6423 42.7484 26.0106 41.9543 26.0106Z" fill="#5655B9"/>
<path d="M41.9543 26.0106H39.1992V56.0826C39.1992 56.8723 38.5509 57.4883 37.7406 57.4883H2.83124V60.5682C2.83124 61.3421 3.47951 61.9896 4.27364 61.9896H41.9381C42.7322 61.9896 43.3805 61.3579 43.3805 60.5682V27.4163C43.3967 26.6423 42.7484 26.0106 41.9543 26.0106Z" fill="#5655B9"/>
<path d="M21.5584 47.7118C21.5584 47.4506 21.3959 47.2171 21.1511 47.1264C19.0796 46.3587 17.6364 44.4184 17.6364 42.168C17.6364 39.2606 20.0784 36.8695 23.1058 36.8695C26.1484 36.8695 28.5753 39.2596 28.5753 42.168C28.5753 44.4184 27.132 46.3587 25.0606 47.1264C24.8157 47.2171 24.6532 47.4506 24.6532 47.7118V50.4915C24.6532 51.3004 23.9756 51.9836 23.1058 51.9836C22.236 51.9836 21.5584 51.3004 21.5584 50.4915V47.7118Z" fill="#5655B9" stroke="white" stroke-width="1.2486" stroke-miterlimit="10" stroke-linecap="round" stroke-linejoin="round"/>
</svg>
