<svg width="190" height="143" viewBox="0 0 190 143" fill="none" xmlns="http://www.w3.org/2000/svg">
<g id="Group 36982">
<ellipse id="Ellipse 1" cx="98.122" cy="77.9084" rx="66.9014" ry="64.9236" fill="#E5E2FF"/>
<ellipse id="Ellipse 2" cx="68.6854" cy="4.32824" rx="4.46009" ry="4.32824" fill="#3629B7"/>
<ellipse id="Ellipse 3" cx="178.85" cy="29.8649" rx="11.1502" ry="10.8206" fill="#FF4267"/>
<ellipse id="Ellipse 4" cx="163.239" cy="117.728" rx="4.46009" ry="4.32824" fill="#0890FE"/>
<ellipse id="Ellipse 5" cx="46.385" cy="117.728" rx="8.92019" ry="8.65648" fill="#FFAF2A"/>
<ellipse id="Ellipse 6" cx="4.46009" cy="60.5955" rx="4.46009" ry="4.32824" fill="#52D5BA"/>
<g id="Group 291">
<g id="Group">
<g id="Group_2">
<path id="Vector" d="M107.522 72.1293C106.971 72.1293 106.501 71.687 106.501 71.15V62.5264C106.501 58.0093 102.741 54.3451 98.1058 54.3451C93.4707 54.3451 89.7107 58.0251 89.7107 62.5264V71.15C89.7107 71.687 89.257 72.1293 88.6897 72.1293H83.0498C82.4987 72.1293 82.045 71.687 82.045 71.15V62.5264C82.045 53.887 89.257 46.8586 98.122 46.8586C106.987 46.8586 114.199 53.887 114.199 62.5264V71.15C114.199 71.687 113.745 72.1293 113.178 72.1293H107.522Z" fill="#5655B9"/>
<path id="Vector_2" d="M98.122 47.8379C106.42 47.8379 113.178 54.424 113.178 62.5106V71.1342H107.538V62.5106C107.538 57.4565 103.324 53.3342 98.122 53.3342C92.9359 53.3342 88.7059 57.4407 88.7059 62.5106V71.1342H83.066V62.5106C83.066 54.424 89.808 47.8379 98.122 47.8379ZM98.122 45.8794C88.7059 45.8794 81.0401 53.35 81.0401 62.5264V71.15C81.0401 72.2398 81.9477 73.1243 83.066 73.1243H88.7059C89.8242 73.1243 90.7318 72.2398 90.7318 71.15V62.5264C90.7318 58.5621 94.0379 55.3243 98.122 55.3243C102.19 55.3243 105.512 58.5621 105.512 62.5264V71.15C105.512 72.2398 106.42 73.1243 107.538 73.1243H113.178C114.296 73.1243 115.204 72.2398 115.204 71.15V62.5264C115.204 53.3342 107.538 45.8794 98.122 45.8794Z" fill="white"/>
</g>
</g>
<g id="Group_3">
<g id="Group_4">
<path id="Vector_3" d="M79.2898 108.108C77.9285 108.108 76.8264 107.034 76.8264 105.708V72.5556C76.8264 71.2289 77.9285 70.1549 79.2898 70.1549H116.954C118.316 70.1549 119.418 71.2289 119.418 72.5556V105.692C119.418 107.018 118.316 108.092 116.954 108.092H79.2898V108.108Z" fill="#5655B9"/>
<g id="Group_5">
<path id="Vector_4" d="M116.954 71.15C117.748 71.15 118.397 71.7818 118.397 72.5715V105.708C118.397 106.481 117.748 107.129 116.954 107.129H79.2898C78.4795 107.129 77.8474 106.497 77.8474 105.708V72.5557C77.8474 71.7818 78.4957 71.1342 79.2898 71.1342H116.954V71.15ZM116.954 69.1757H79.2898C77.3774 69.1757 75.8216 70.692 75.8216 72.5557V105.692C75.8216 107.555 77.3774 109.072 79.2898 109.072H116.954C118.867 109.072 120.423 107.555 120.423 105.692V72.5557C120.423 70.692 118.867 69.1757 116.954 69.1757Z" fill="white"/>
</g>
</g>
<g id="Group_6">
<path id="Vector_5" d="M116.954 71.15H109.596V97.2735C109.596 98.0474 108.948 98.6791 108.138 98.6791H77.8312V105.692C77.8312 106.466 78.4795 107.113 79.2736 107.113H116.938C117.732 107.113 118.381 106.481 118.381 105.692V72.5556C118.397 71.7817 117.748 71.15 116.954 71.15Z" fill="#5655B9"/>
</g>
<g id="Group_7">
<path id="Vector_6" d="M116.954 71.15H114.199V101.222C114.199 102.012 113.551 102.628 112.741 102.628H77.8312V105.708C77.8312 106.481 78.4795 107.129 79.2736 107.129H116.938C117.732 107.129 118.381 106.497 118.381 105.708V72.5556C118.397 71.7817 117.748 71.15 116.954 71.15Z" fill="#5655B9"/>
</g>
</g>
<path id="Vector_7" d="M96.5584 92.8512C96.5584 92.5901 96.3959 92.3565 96.1511 92.2658C94.0796 91.4981 92.6364 89.5578 92.6364 87.3074C92.6364 84.4001 95.0784 82.0089 98.1058 82.0089C101.148 82.0089 103.575 84.399 103.575 87.3074C103.575 89.5578 102.132 91.4981 100.061 92.2658C99.8157 92.3565 99.6532 92.5901 99.6532 92.8512V95.631C99.6532 96.4399 98.9756 97.1231 98.1058 97.1231C97.236 97.1231 96.5584 96.4398 96.5584 95.631V92.8512Z" fill="#5655B9" stroke="white" stroke-width="1.2486" stroke-miterlimit="10" stroke-linecap="round" stroke-linejoin="round"/>
</g>
</g>
</svg>
