<?xml version="1.0" standalone="no"?>
<!DOCTYPE svg PUBLIC "-//W3C//DTD SVG 1.0//EN" "http://www.w3.org/TR/2001/REC-SVG-20010904/DTD/svg10.dtd">
<svg xmlns="http://www.w3.org/2000/svg" xmlns:xlink="http://www.w3.org/1999/xlink" id="body_1" width="253" height="189">

<defs>
    <clipPath  id="1">

    <path id=""  clip-rule="evenodd" transform="matrix(1 0 0 1 0 0)"  d="M0 142L0 -0.83203125L0 -0.83203125L190 -0.83203125L190 -0.83203125L190 142L190 142L0 142z" />    </clipPath>
    <clipPath  id="2">

    <path id=""  clip-rule="evenodd" transform="matrix(1 0 0 1 0 0)"  d="M104.19956 86.47541C 104.19956 83.206024 101.47684 80.55261 98.105835 80.55261C 94.75104 80.55261 92.012085 83.206024 92.012085 86.47541C 92.012085 89.00247 93.63276 91.166275 95.93411 92.01916L95.93411 92.01916L95.93411 94.79893C 95.93411 95.96769 96.90654 96.91534 98.105835 96.91534C 99.30514 96.91534 100.277534 95.96769 100.277534 94.79893L100.277534 94.79893L100.277534 92.01916C 102.57889 91.166275 104.19956 89.00247 104.19956 86.47541z" />    </clipPath>
</defs>

<g transform="matrix(1.3333 0 0 1.3333 0 0)">
	<g clip-path="url(#1)" >
    <path id=""  transform="matrix(1 0 0 -1 0 142)"  d="M165.02345 64.92365C 165.02345 29.067314 135.07068 1.5E-05 98.12205 1.5E-05C 61.173424 1.5E-05 31.220642 29.067314 31.220642 64.92365C 31.220642 100.77998 61.173424 129.84729 98.12205 129.84729C 135.07068 129.84729 165.02345 100.77998 165.02345 64.92365z" stroke="none" fill="#E5E2FF" fill-rule="nonzero" />
    <path id=""  transform="matrix(1 0 0 -1 0 142)"  d="M73.14553 138.50378C 73.14553 136.11337 71.14868 134.17555 68.68543 134.17555C 66.22219 134.17555 64.22534 136.11337 64.22534 138.50378C 64.22534 140.89421 66.22219 142.83203 68.68543 142.83203C 71.14868 142.83203 73.14553 140.89421 73.14553 138.50378z" stroke="none" fill="#3629B7" fill-rule="nonzero" />
    <path id=""  transform="matrix(1 0 0 -1 0 142)"  d="M190 112.96712C 190 106.99106 185.00786 102.14651 178.84976 102.14651C 172.69165 102.14651 167.69952 106.99106 167.69952 112.96712C 167.69952 118.94317 172.69165 123.78772 178.84976 123.78772C 185.00786 123.78772 190 118.94317 190 112.96712z" stroke="none" fill="#FF4267" fill-rule="nonzero" />
    <path id=""  transform="matrix(1 0 0 -1 0 142)"  d="M167.69954 25.103825C 167.69954 22.713402 165.7027 20.775583 163.23946 20.775583C 160.77621 20.775583 158.77936 22.713402 158.77936 25.103825C 158.77936 27.494247 160.77621 29.432068 163.23946 29.432068C 165.7027 29.432068 167.69954 27.494247 167.69954 25.103825z" stroke="none" fill="#0890FE" fill-rule="nonzero" />
    <path id=""  transform="matrix(1 0 0 -1 0 142)"  d="M55.30516 25.10383C 55.30516 20.322987 51.311455 16.447346 46.38497 16.447346C 41.45849 16.447346 37.464783 20.322987 37.464783 25.10383C 37.464783 29.884674 41.45849 33.760315 46.38497 33.760315C 51.311455 33.760315 55.30516 29.884674 55.30516 25.10383z" stroke="none" fill="#FFAF2A" fill-rule="nonzero" />
    <path id=""  transform="matrix(1 0 0 -1 0 142)"  d="M8.920188 82.23658C 8.920188 79.84615 6.923336 77.90833 4.460094 77.90833C 1.996852 77.90833 0 79.84615 0 82.23658C 0 84.627 1.996852 86.56482 4.460094 86.56482C 6.923336 86.56482 8.920188 84.627 8.920188 82.23658z" stroke="none" fill="#52D5BA" fill-rule="nonzero" />
    <path id=""  transform="matrix(1 0 0 -1 0 142)"  d="M107.52196 70.70277C 106.97093 70.70277 106.50092 71.145004 106.50092 71.682L106.50092 71.682L106.50092 80.3056C 106.50092 84.82272 102.74097 88.48697 98.10584 88.48697C 93.47071 88.48697 89.71074 84.80693 89.71074 80.3056L89.71074 80.3056L89.71074 71.682C 89.71074 71.145004 89.256966 70.70277 88.68973 70.70277L88.68973 70.70277L83.04976 70.70277C 82.49873 70.70277 82.04495 71.145004 82.04495 71.682L82.04495 71.682L82.04495 80.3056C 82.04495 88.94499 89.25695 95.97339 98.12204 95.97339C 106.98713 95.97339 114.19913 88.94499 114.19913 80.3056L114.19913 80.3056L114.19913 71.682C 114.19913 71.145004 113.74535 70.70277 113.178116 70.70277L113.178116 70.70277L107.52196 70.70277z" stroke="none" fill="#5655B9" fill-rule="nonzero" />
    <path id=""  transform="matrix(1 0 0 -1 0 142)"  d="M98.122025 96.95264C 88.70591 96.95264 81.04013 89.48201 81.04013 80.30562L81.04013 80.30562L81.04013 71.68202C 81.04013 70.592224 81.94771 69.707756 83.06597 69.707756L83.06597 69.707756L88.70592 69.707756C 89.82418 69.707756 90.73176 70.592224 90.73176 71.68202L90.73176 71.68202L90.73176 80.30562C 90.73176 84.26994 94.037926 87.507744 98.122025 87.507744C 102.18992 87.507744 105.5123 84.26994 105.5123 80.30562L105.5123 80.30562L105.5123 71.68202C 105.5123 70.592224 106.419876 69.707756 107.53814 69.707756L107.53814 69.707756L113.17811 69.707756C 114.29637 69.707756 115.20395 70.592224 115.20395 71.68202L115.20395 71.68202L115.20395 80.30562C 115.20395 89.4978 107.53815 96.95264 98.122025 96.95264zM98.122025 94.99416C 106.419876 94.99416 113.17811 88.40801 113.17811 80.32141L113.17811 80.32141L113.17811 71.697815L113.17811 71.697815L107.53814 71.697815L107.53814 71.697815L107.53814 80.32141C 107.53814 85.37554 103.324394 89.4978 98.122025 89.4978C 92.93587 89.4978 88.70592 85.391335 88.70592 80.32141L88.70592 80.32141L88.70592 71.697815L88.70592 71.697815L83.06597 71.697815L83.06597 71.697815L83.06597 80.32141C 83.06597 88.40801 89.80797 94.99416 98.122025 94.99416z" stroke="none" fill="#FFFFFF" fill-rule="nonzero" />
    <path id=""  transform="matrix(1 0 0 -1 0 142)"  d="M79.28985 34.72382C 77.92848 34.72382 76.826416 35.797813 76.826416 37.124523L76.826416 37.124523L76.826416 70.27641C 76.826416 71.60312 77.92848 72.677124 79.28985 72.677124L79.28985 72.677124L116.9543 72.677124C 118.31567 72.677124 119.41773 71.60312 119.41773 70.27641L119.41773 70.27641L119.41773 37.14032C 119.41773 35.813614 118.31567 34.739605 116.9543 34.739605L116.9543 34.739605L79.28985 34.739605L79.28985 34.739605L79.28985 34.72382z" stroke="none" fill="#5655B9" fill-rule="nonzero" />
    <path id=""  transform="matrix(1 0 0 -1 0 142)"  d="M116.95429 73.65631L79.28983 73.65631C 77.37744 73.65631 75.821594 72.140076 75.821594 70.27637L75.821594 70.27637L75.821594 37.140266C 75.821594 35.276558 77.37744 33.760323 79.28983 33.760323L79.28983 33.760323L116.95429 33.760323C 118.866684 33.760323 120.42253 35.276558 120.42253 37.140266L120.42253 37.140266L120.42253 70.27637C 120.42253 72.140076 118.866684 73.65631 116.95429 73.65631zM116.95429 71.682045C 117.74843 71.682045 118.39669 71.05028 118.39669 70.260574L118.39669 70.260574L118.39669 37.12447C 118.39669 36.350555 117.74843 35.702995 116.95429 35.702995L116.95429 35.702995L79.28983 35.702995C 78.4795 35.702995 77.847435 36.334763 77.847435 37.12447L77.847435 37.12447L77.847435 70.27637C 77.847435 71.05028 78.495705 71.69783 79.28983 71.69783L79.28983 71.69783L116.95429 71.69783L116.95429 71.69783L116.95429 71.682045z" stroke="none" fill="#FFFFFF" fill-rule="nonzero" />
    <path id=""  transform="matrix(1 0 0 -1 0 142)"  d="M116.954315 71.68207L109.596466 71.68207L109.596466 71.68207L109.596466 45.55857C 109.596466 44.78466 108.948204 44.15288 108.13786 44.15288L108.13786 44.15288L77.83124 44.15288L77.83124 44.15288L77.83124 37.140293C 77.83124 36.36638 78.47951 35.71882 79.273636 35.71882L79.273636 35.71882L116.93811 35.71882C 117.73225 35.71882 118.380516 36.350586 118.380516 37.140293L118.380516 37.140293L118.380516 70.27639C 118.39672 71.05031 117.74844 71.68207 116.954315 71.68207z" stroke="none" fill="#5655B9" fill-rule="nonzero" />
    <path id=""  transform="matrix(1 0 0 -1 0 142)"  d="M116.954315 71.68207L114.19917 71.68207L114.19917 71.68207L114.19917 41.61003C 114.19917 40.820328 113.55091 40.20434 112.74057 40.20434L112.74057 40.20434L77.83124 40.20434L77.83124 40.20434L77.83124 37.12449C 77.83124 36.35058 78.47951 35.703014 79.273636 35.703014L79.273636 35.703014L116.93811 35.703014C 117.73225 35.703014 118.380516 36.33478 118.380516 37.12449L118.380516 37.12449L118.380516 70.27639C 118.39672 71.05031 117.74844 71.68207 116.954315 71.68207z" stroke="none" fill="#5655B9" fill-rule="nonzero" />
    <path id=""  transform="matrix(1 0 0 -1 0 142)"  d="M104.19956 55.524586C 104.19956 58.793972 101.47684 61.447388 98.105835 61.447388C 94.75104 61.447388 92.012085 58.793972 92.012085 55.524586C 92.012085 52.997524 93.63276 50.833725 95.93411 49.980843L95.93411 49.980843L95.93411 47.201077C 95.93411 46.03231 96.90654 45.084663 98.105835 45.084663C 99.30514 45.084663 100.277534 46.03231 100.277534 47.201077L100.277534 47.201077L100.277534 49.980843C 102.57889 50.833725 104.19956 52.997524 104.19956 55.524586z" stroke="none" fill="#5655B9" fill-rule="nonzero" />
		<g clip-path="url(#2)" >
    <path id=""  transform="matrix(1 0 0 -1 0 142)"  d="M100.711426 48.810055C 103.472664 49.83337 105.448166 52.444195 105.448166 55.524586L105.448166 55.524586L102.95096 55.524586C 102.95096 53.550854 101.68512 51.83408 99.84364 51.151627L99.84364 51.151627L100.711426 48.810055zM101.52613 47.201077L101.52613 49.980843L101.52613 49.980843L99.02893 49.980843L99.02893 49.980843L99.02893 47.201077L99.02893 47.201077L101.52613 47.201077zM98.105835 43.836063C 99.96417 43.836063 101.52613 45.312572 101.52613 47.201077L101.52613 47.201077L99.02893 47.201077C 99.02893 46.75205 98.646095 46.333263 98.105835 46.333263L98.105835 46.333263L98.105835 43.836063zM94.68552 47.201077C 94.68552 45.312557 96.24752 43.836063 98.105835 43.836063L98.105835 43.836063L98.105835 46.333263C 97.56556 46.333263 97.18272 46.752064 97.18272 47.201077L97.18272 47.201077L94.68552 47.201077zM94.68552 49.980843L94.68552 47.201077L94.68552 47.201077L97.18272 47.201077L97.18272 47.201077L97.18272 49.980843L97.18272 49.980843L94.68552 49.980843zM90.76349 55.524586C 90.76349 52.444195 92.73898 49.83337 95.50022 48.810055L95.50022 48.810055L96.368004 51.151627C 94.52653 51.83408 93.26068 53.550854 93.26068 55.524586L93.26068 55.524586L90.76349 55.524586zM98.105835 62.695988C 94.0964 62.695988 90.76349 59.517982 90.76349 55.524586L90.76349 55.524586L93.26068 55.524586C 93.26068 58.06996 95.405685 60.198788 98.105835 60.198788L98.105835 60.198788L98.105835 62.695988zM105.448166 55.524586C 105.448166 59.515846 102.13368 62.695988 98.105835 62.695988L98.105835 62.695988L98.105835 60.198788C 100.82 60.198788 102.95096 58.072098 102.95096 55.524586L102.95096 55.524586L105.448166 55.524586zM100.277534 49.980843L99.84364 51.151627C 99.35395 50.970146 99.02893 50.50308 99.02893 49.980843L99.02893 49.980843L100.277534 49.980843zM95.93411 49.980843L97.18272 49.980843C 97.18272 50.50308 96.8577 50.970146 96.368004 51.151627L96.368004 51.151627L95.93411 49.980843z" stroke="none" fill="#FFFFFF" fill-rule="nonzero" />
		</g>
	</g>
</g>
</svg>