<svg xmlns="http://www.w3.org/2000/svg" width="253" height="189">
    <defs>
        <clipPath id="a">
            <path clip-rule="evenodd" d="M0 142V-.832h190V142H0z"/>
        </clipPath>
        <clipPath id="b">
            <path clip-rule="evenodd" d="M104.2 86.475c0-3.269-2.723-5.922-6.094-5.922-3.355 0-6.094 2.653-6.094 5.922 0 2.527 1.62 4.691 3.922 5.544v2.78c0 1.169.973 2.116 2.172 2.116 1.2 0 2.172-.947 2.172-2.116v-2.78c2.3-.853 3.922-3.017 3.922-5.544z"/>
        </clipPath>
    </defs>
    <g clip-path="url(#a)" transform="scale(1.3333)">
        <path d="M165.023 77.076c0 35.857-29.952 64.924-66.9 64.924-36.95 0-66.902-29.067-66.902-64.924 0-35.856 29.952-64.923 66.901-64.923s66.901 29.067 66.901 64.923z" fill="#E5E2FF"/>
        <path d="M73.146 3.496c0 2.39-1.997 4.328-4.46 4.328-2.464 0-4.46-1.937-4.46-4.328 0-2.39 1.996-4.328 4.46-4.328 2.463 0 4.46 1.938 4.46 4.328z" fill="#3629B7"/>
        <path d="M190 29.033c0 5.976-4.992 10.82-11.15 10.82s-11.15-4.844-11.15-10.82 4.992-10.82 11.15-10.82S190 23.056 190 29.032z" fill="#FF4267"/>
        <path d="M167.7 116.896c0 2.39-1.997 4.328-4.46 4.328-2.464 0-4.46-1.937-4.46-4.328 0-2.39 1.996-4.328 4.46-4.328 2.463 0 4.46 1.938 4.46 4.328z" fill="#0890FE"/>
        <path d="M55.305 116.896c0 4.781-3.994 8.657-8.92 8.657-4.927 0-8.92-3.876-8.92-8.657 0-4.78 3.993-8.656 8.92-8.656 4.926 0 8.92 3.875 8.92 8.656z" fill="#FFAF2A"/>
        <path d="M8.92 59.763c0 2.39-1.997 4.329-4.46 4.329S0 62.154 0 59.763c0-2.39 1.997-4.328 4.46-4.328s4.46 1.938 4.46 4.328z" fill="#52D5BA"/>
        <path d="M107.522 71.297c-.551 0-1.021-.442-1.021-.979v-8.624c0-4.517-3.76-8.181-8.395-8.181s-8.395 3.68-8.395 8.181v8.624c0 .537-.454.98-1.021.98h-5.64c-.551 0-1.005-.443-1.005-.98v-8.624c0-8.639 7.212-15.667 16.077-15.667 8.865 0 16.077 7.028 16.077 15.667v8.624c0 .537-.454.98-1.02.98h-5.657z" fill="#5655B9"/>
        <path d="M98.122 45.047c-9.416 0-17.082 7.471-17.082 16.647v8.624c0 1.09.908 1.974 2.026 1.974h5.64c1.118 0 2.026-.884 2.026-1.974v-8.624c0-3.964 3.306-7.202 7.39-7.202 4.068 0 7.39 3.238 7.39 7.202v8.624c0 1.09.908 1.974 2.026 1.974h5.64c1.118 0 2.026-.884 2.026-1.974v-8.624c0-9.192-7.666-16.647-17.082-16.647zm0 1.959c8.298 0 15.056 6.586 15.056 14.673v8.623h-5.64V61.68c0-5.055-4.214-9.177-9.416-9.177-5.186 0-9.416 4.107-9.416 9.177v8.623h-5.64V61.68c0-8.087 6.742-14.673 15.056-14.673z" fill="#FFF"/>
        <path d="M79.29 107.276c-1.362 0-2.464-1.074-2.464-2.4V71.723c0-1.327 1.102-2.401 2.464-2.401h37.664c1.362 0 2.464 1.074 2.464 2.4v33.137c0 1.326-1.102 2.4-2.464 2.4H79.29v.016z" fill="#5655B9"/>
        <path d="M116.954 68.344H79.29c-1.913 0-3.468 1.516-3.468 3.38v33.136c0 1.863 1.555 3.38 3.468 3.38h37.664c1.913 0 3.469-1.517 3.469-3.38V71.724c0-1.864-1.556-3.38-3.469-3.38zm0 1.974a1.43 1.43 0 0 1 1.443 1.421v33.137c0 .773-.649 1.421-1.443 1.421H79.29a1.42 1.42 0 0 1-1.443-1.421V71.724c0-.774.649-1.422 1.443-1.422h37.664v.016z" fill="#FFF"/>
        <path d="M116.954 70.318h-7.358V96.44c0 .774-.648 1.406-1.458 1.406H77.83v7.013c0 .774.649 1.421 1.443 1.421h37.664a1.43 1.43 0 0 0 1.443-1.421V71.724c.016-.774-.633-1.406-1.427-1.406z" fill="#5655B9"/>
        <path d="M116.954 70.318H114.2v30.072c0 .79-.648 1.406-1.458 1.406H77.83v3.08c0 .773.649 1.421 1.443 1.421h37.664a1.43 1.43 0 0 0 1.443-1.421V71.724c.016-.774-.633-1.406-1.427-1.406z" fill="#5655B9"/>
        <path d="M104.2 86.475c0-3.269-2.723-5.922-6.094-5.922-3.355 0-6.094 2.653-6.094 5.922 0 2.527 1.62 4.691 3.922 5.544v2.78c0 1.169.973 2.116 2.172 2.116 1.2 0 2.172-.947 2.172-2.116v-2.78c2.3-.853 3.922-3.017 3.922-5.544z" fill="#5655B9"/>
        <g clip-path="url(#b)">
            <path d="M100.711 93.19c2.762-1.023 4.737-3.634 4.737-6.715h-2.497c0 1.974-1.266 3.69-3.107 4.373l.867 2.342zm.815 1.609v-2.78H99.03v2.78h2.497zm-3.42 3.365c1.858 0 3.42-1.477 3.42-3.365H99.03c0 .449-.383.868-.923.868v2.497zm-3.42-3.365c0 1.888 1.562 3.365 3.42 3.365v-2.497c-.54 0-.923-.42-.923-.868h-2.497zm0-2.78v2.78h2.497v-2.78h-2.497zm-3.923-5.544c0 3.08 1.976 5.692 4.737 6.715l.868-2.342c-1.841-.682-3.107-2.399-3.107-4.373h-2.498zm7.343-7.171c-4.01 0-7.343 3.178-7.343 7.171h2.498c0-2.545 2.145-4.674 4.845-4.674v-2.497zm7.342 7.171c0-3.99-3.314-7.171-7.342-7.171v2.497c2.714 0 4.845 2.127 4.845 4.674h2.497zm-5.17 5.544-.434-1.17c-.49.18-.815.648-.815 1.17h1.249zm-4.344 0h1.249c0-.522-.325-.99-.815-1.17l-.434 1.17z" fill="#FFF"/>
        </g>
    </g>
</svg>
