<svg width="25" height="34" viewBox="0 0 25 34" fill="none" xmlns="http://www.w3.org/2000/svg">
<g id="Vector">
<path d="M16.1095 0.0268334L16.0923 7.54022L16.0751 15.0536L15.2844 13.3094V13.305L14.2587 30.0312C15.2672 32.2494 15.8058 33.4346 15.8115 33.439C15.8173 33.4435 16.3903 33.4703 17.0836 33.4972C19.1809 33.5777 21.7824 33.7521 23.7593 33.9444C24.2177 33.9891 24.6074 34.0115 24.636 33.9936C24.6647 33.9757 24.6704 26.3281 24.6647 16.9946L24.6475 0.0268334H16.1095Z" fill="#B1060F"/>
<path d="M0.666672 0.00447253V16.9901C0.666672 26.3326 0.678132 33.9846 0.695323 33.9981C0.712513 34.0115 1.45171 33.9533 2.34561 33.8773C3.23952 33.8013 4.47151 33.7029 5.08464 33.6626C6.02439 33.6 8.84364 33.4614 9.16453 33.4569C9.26194 33.4569 9.26767 33.0768 9.27913 26.2611L9.29633 19.0652L9.97822 20.5679C10.0814 20.8004 10.1157 20.872 10.2189 21.1001L11.2446 4.37834C11.0268 3.8998 11.1414 4.15025 10.895 3.60464C10.0584 1.7576 9.3479 0.196779 9.31925 0.125223L9.26194 0H0.666672V0.00447253Z" fill="#B1060F"/>
<path d="M0.666672 0.00447253V9.53932L9.27341 27.3568C9.27341 26.9498 9.27341 26.7262 9.27913 26.2611L9.29633 19.0652L9.97822 20.5679C13.7601 28.9399 15.7944 33.4301 15.8058 33.439C15.8115 33.4435 16.3846 33.4703 17.0779 33.4972C19.1752 33.5777 21.7767 33.7521 23.7536 33.9444C24.212 33.9891 24.6016 34.0115 24.6303 33.9936C24.6475 33.9802 24.6589 30.2324 24.6589 24.9418L16.0981 5.72001L16.0923 7.54022L16.0751 15.0536L15.2844 13.3094C14.5108 11.6055 13.9951 10.4651 10.8836 3.60464C10.047 1.7576 9.33644 0.196779 9.30779 0.125223L9.25049 0H0.666672V0.00447253Z" fill="url(#paint0_radial_16_1516)"/>
<path d="M0.666672 0.00447253L9.2906 19.0786V19.0697L9.97249 20.5724C13.7601 28.9399 15.7944 33.4301 15.8058 33.439C15.8115 33.4435 16.3846 33.4703 17.0779 33.4972C19.1752 33.5777 21.7767 33.7521 23.7536 33.9444C24.2063 33.9891 24.6016 34.0115 24.6246 33.9936L16.0751 15.0491L16.0751 15.0536L15.2844 13.3094C14.5108 11.6055 13.9951 10.4651 10.8836 3.60464C10.047 1.7576 9.33644 0.196779 9.30779 0.125223L9.25049 0H4.95858L0.666672 0.00447253Z" fill="#E50914"/>
</g>
<defs>
<radialGradient id="paint0_radial_16_1516" cx="0" cy="0" r="1" gradientUnits="userSpaceOnUse" gradientTransform="translate(12.2649 16.8028) rotate(-15.1197) scale(1.54826 46.1853)">
<stop/>
<stop offset="1" stop-opacity="0"/>
</radialGradient>
</defs>
</svg>
