<svg width="21" height="32" viewBox="0 0 21 32" fill="none" xmlns="http://www.w3.org/2000/svg">
<g id="Group 15">
<g id="Group 14">
<path id="Vector" d="M17.4478 31.4989H3.55213C2.37145 31.4989 1.41432 30.5418 1.41432 29.3611V2.63879C1.41432 1.4581 2.37145 0.500977 3.55213 0.500977H17.4478C18.6284 0.500977 19.5856 1.4581 19.5856 2.63879V29.3611C19.5856 30.5418 18.6284 31.4989 17.4478 31.4989Z" fill="#E8E6D9"/>
<path id="Vector_2" d="M3.55213 29.3612V2.63879C3.55213 1.4581 4.50926 0.500977 5.68995 0.500977H3.55213C2.37145 0.500977 1.41432 1.4581 1.41432 2.63879V29.3611C1.41432 30.5418 2.37145 31.4989 3.55213 31.4989H5.68995C4.50926 31.4989 3.55213 30.5418 3.55213 29.3612Z" fill="#D1CDB2"/>
<path id="Vector_3" d="M19.5856 3.70776H1.41438V27.2235H19.5856V3.70776Z" fill="#8FDED7"/>
<path id="Vector_4" d="M19.5856 3.70776H1.41438V27.2234H3.55213L19.5856 11.19V3.70776Z" fill="#72CCC5"/>
<path id="Vector_5" d="M13.8403 27.2233L19.5856 21.478V16.0668L8.429 27.2233H13.8403Z" fill="#72CCC5"/>
<path id="Vector_6" d="M19.5856 27.2234V22.6138L14.9759 27.2234H19.5856Z" fill="#72CCC5"/>
<path id="Vector_7" d="M3.55219 3.70776H1.41438V27.2235H3.55219V3.70776Z" fill="#11BBA3"/>
<path id="Vector_8" d="M19.5856 24.5846C19.3089 24.5846 19.0845 24.8088 19.0845 25.0856V26.7224H1.91538V9.05221C1.91538 8.77546 1.69106 8.55115 1.41431 8.55115C1.13756 8.55115 0.913315 8.77546 0.913315 9.05221V29.3612C0.913315 30.8162 2.09713 32 3.55213 32H17.4478C18.9028 32 20.0866 30.8162 20.0866 29.3612V25.0856C20.0866 24.8088 19.8623 24.5846 19.5856 24.5846ZM17.4478 30.998H3.55213C2.64963 30.998 1.91538 30.2638 1.91538 29.3612V27.7245H19.0845V29.3612C19.0845 30.2637 18.3503 30.998 17.4478 30.998Z" fill="#8F8F8F"/>
<path id="Vector_9" d="M17.4478 0H3.55213C2.09713 0 0.913315 1.18381 0.913315 2.63881V6.91437C0.913315 7.19112 1.13763 7.41544 1.41438 7.41544C1.69113 7.41544 1.91544 7.19119 1.91544 6.91437V4.20875H19.0846V22.9478C19.0846 23.2246 19.3089 23.4489 19.5856 23.4489C19.8623 23.4489 20.0867 23.2246 20.0867 22.9478V2.63881C20.0866 1.18381 18.9028 0 17.4478 0ZM1.91538 3.20669V2.63881C1.91538 1.73625 2.64963 1.00206 3.55213 1.00206H17.4478C18.3503 1.00206 19.0845 1.73625 19.0845 2.63881V3.20669H1.91538Z" fill="#8F8F8F"/>
<path id="Vector_10" d="M11.5689 28.8601H9.43106C9.15438 28.8601 8.93 29.0844 8.93 29.3612C8.93 29.638 9.15431 29.8622 9.43106 29.8622H11.5689C11.8456 29.8622 12.0699 29.638 12.0699 29.3612C12.0699 29.0844 11.8456 28.8601 11.5689 28.8601Z" fill="#8F8F8F"/>
<path id="Vector_11" d="M10.5668 1.60327H10.4999C10.2233 1.60327 9.99888 1.82752 9.99888 2.10433C9.99888 2.38115 10.2232 2.6054 10.4999 2.6054H10.5668C10.8434 2.6054 11.0678 2.38115 11.0678 2.10433C11.0678 1.82752 10.8434 1.60327 10.5668 1.60327Z" fill="#8F8F8F"/>
<path id="Vector_12" d="M12.7046 1.60327H12.6378C12.3611 1.60327 12.1367 1.82752 12.1367 2.10433C12.1367 2.38115 12.361 2.6054 12.6378 2.6054H12.7046C12.9813 2.6054 13.2056 2.38115 13.2056 2.10433C13.2056 1.82752 12.9813 1.60327 12.7046 1.60327Z" fill="#8F8F8F"/>
<path id="Vector_13" d="M8.429 1.60327H8.36219C8.0855 1.60327 7.86113 1.82752 7.86113 2.10433C7.86113 2.38115 8.08544 2.6054 8.36219 2.6054H8.429C8.70569 2.6054 8.93007 2.38115 8.93007 2.10433C8.93007 1.82752 8.70569 1.60327 8.429 1.60327Z" fill="#8F8F8F"/>
</g>
</g>
</svg>
