<svg width="20" height="21" viewBox="0 0 20 21" fill="none" xmlns="http://www.w3.org/2000/svg">
<path d="M1.9 9.03008C1.9 6.06133 1.9 4.57697 2.23977 4.0776C2.57953 3.57823 3.93249 3.10048 6.63842 2.14498L7.15395 1.96294C8.5645 1.46486 9.26974 1.21582 10 1.21582C10.7303 1.21582 11.4355 1.46486 12.8461 1.96294L13.3616 2.14498C16.0675 3.10048 17.4205 3.57823 17.7603 4.0776C18.1 4.57697 18.1 6.06133 18.1 9.03008C18.1 9.47842 18.1 9.96473 18.1 10.4921C18.1 12.8177 17.3469 14.6115 16.3 15.9816M2.07356 12.3569C2.84524 16.3476 6.01877 18.4036 8.10871 19.3454C8.758 19.638 9.08263 19.7843 10 19.7843C10.9174 19.7843 11.242 19.638 11.8913 19.3454C12.4116 19.1109 12.9992 18.8074 13.6 18.4221" stroke="#334D8F" stroke-linecap="round"/>
<path d="M10.0001 9.5C11.2274 9.5 12.2223 8.60457 12.2223 7.5C12.2223 6.39543 11.2274 5.5 10.0001 5.5C8.77276 5.5 7.77784 6.39543 7.77784 7.5C7.77784 8.60457 8.77276 9.5 10.0001 9.5Z" stroke="#334D8F"/>
<path d="M14.4444 13.5C14.4444 14.6046 14.4444 15.5 10 15.5C5.55556 15.5 5.55556 14.6046 5.55556 13.5C5.55556 12.3954 7.5454 11.5 10 11.5C12.4546 11.5 14.4444 12.3954 14.4444 13.5Z" stroke="#334D8F"/>
</svg>
