<svg width="20" height="20" viewBox="0 0 20 20" fill="none" xmlns="http://www.w3.org/2000/svg">
<path d="M14.1127 15.6832L10.5715 13.7213C11.8876 12.6858 12.2454 10.6508 12.2454 9.50959V7.1343C12.2454 5.56165 10.1558 3.81014 8.05668 3.81014C5.95869 3.81014 3.81345 5.56165 3.81345 7.1343V9.50959C3.81345 10.5473 4.25217 12.6459 5.58184 13.7123L1.94944 15.6826C1.94944 15.6826 1 16.1056 1 16.6326V18.0579C1 18.5827 1.42579 19.0079 1.94944 19.0079H14.1127C14.6364 19.0079 15.0622 18.5822 15.0622 18.0579V16.6326C15.0622 16.0736 14.1122 15.6826 14.1122 15.6826L14.1127 15.6832ZM13.9373 17.8841H2.12493V16.8784C2.20536 16.8194 2.31842 16.7513 2.40729 16.7108C2.43372 16.699 2.46016 16.6861 2.48547 16.6715L6.11843 14.7011C6.44972 14.5212 6.66908 14.1882 6.70283 13.813C6.73658 13.4378 6.57965 13.0706 6.28605 12.8349C5.34279 12.0784 4.93838 10.4039 4.93838 9.51016V7.13487C4.93838 6.3266 6.46153 4.93563 8.05668 4.93563C9.68165 4.93563 11.1204 6.30804 11.1204 7.13487V9.51016C11.1204 10.391 10.8471 12.0733 9.87626 12.8371C9.57928 13.0711 9.41897 13.439 9.45047 13.8153C9.48197 14.1916 9.70133 14.5279 10.0326 14.709L13.5739 16.6709C13.6048 16.6878 13.6448 16.7063 13.6774 16.721C13.7606 16.7564 13.8624 16.8149 13.9373 16.8666V17.8841ZM18.0494 12.8827L14.4553 10.9208C15.7715 9.88532 16.1821 7.85032 16.1821 6.70908V4.33379C16.1821 2.76114 14.0402 0.992188 11.9411 0.992188C10.5771 0.992188 9.18274 1.73408 8.3711 2.68352C8.83401 2.71221 9.34417 2.71277 9.78514 2.85338C10.378 2.3916 11.1272 2.11768 11.9411 2.11768C13.566 2.11768 15.0571 3.50697 15.0571 4.33435V6.70964C15.0571 7.59046 14.7309 9.2728 13.7606 10.0366C13.4631 10.2706 13.3034 10.6385 13.3349 11.0147C13.3664 11.3916 13.5852 11.7274 13.917 11.9085L17.5112 13.8704C17.5421 13.8873 17.582 13.9058 17.6147 13.9204C17.6979 13.9559 17.7997 14.0144 17.8745 14.0661V15.0667H15.6038C15.9469 15.3255 16.0504 15.6956 16.1837 16.1917H18.0506C18.5742 16.1917 19 15.7659 19 15.2417V13.8338C18.9994 13.2742 18.0494 12.8827 18.0494 12.8827Z" fill="#334D8F"/>
</svg>
