<svg width="21" height="20" viewBox="0 0 21 20" fill="none" xmlns="http://www.w3.org/2000/svg">
<path d="M11.322 14.2756V15.315C11.322 15.4829 11.2552 15.6438 11.1365 15.7625C11.0177 15.8813 10.8567 15.948 10.6888 15.948C10.5209 15.948 10.3599 15.8813 10.2412 15.7625C10.1225 15.6438 10.0559 15.4829 10.0559 15.315V14.2471C9.6368 14.178 9.23598 14.0253 8.87721 13.798C8.5185 13.5708 8.20913 13.2737 7.9676 12.9244C7.87075 12.8186 7.81688 12.6803 7.81645 12.5369C7.81636 12.4551 7.83286 12.3741 7.86501 12.2988C7.89715 12.2236 7.94429 12.1555 8.00347 12.099C8.06267 12.0425 8.13268 11.9985 8.20936 11.9699C8.28603 11.9411 8.36773 11.9284 8.4495 11.9323C8.53065 11.9318 8.61085 11.9494 8.68436 11.9837C8.75797 12.018 8.82297 12.0681 8.87475 12.1307C9.17693 12.5255 9.58719 12.824 10.0559 12.9904V10.5906C8.79916 10.0898 8.16605 9.3622 8.16605 8.40787C8.18498 7.89697 8.38578 7.40964 8.73227 7.0337C9.07875 6.65777 9.54817 6.41802 10.0559 6.35757V5.30865C10.0559 5.14076 10.1225 4.97962 10.2412 4.86089C10.3599 4.74217 10.5209 4.67566 10.6888 4.67566C10.8567 4.67566 11.0177 4.74217 11.1365 4.86089C11.2552 4.97962 11.322 5.14076 11.322 5.30865V6.34811C11.6751 6.40253 12.0135 6.52749 12.3171 6.71582C12.6207 6.90415 12.8833 7.15191 13.0889 7.44409C13.1722 7.5534 13.2215 7.68476 13.2305 7.82195C13.2331 7.90293 13.2194 7.98371 13.1901 8.0593C13.1608 8.13489 13.1167 8.20368 13.0603 8.26189C13.0039 8.32 12.9363 8.36639 12.8618 8.39795C12.7871 8.42951 12.7069 8.44576 12.6258 8.44567C12.5414 8.44463 12.458 8.42554 12.3815 8.38963C12.3048 8.35382 12.2368 8.30204 12.1818 8.23789C11.9565 7.95641 11.6595 7.74079 11.322 7.6141V9.74005L11.5582 9.83464C12.7582 10.2976 13.5047 10.9778 13.5047 12.0645C13.4884 12.6408 13.254 13.1897 12.8489 13.6001C12.4438 14.0104 11.8981 14.2518 11.322 14.2756ZM10.0559 9.19221V7.66139C9.90335 7.71669 9.77201 7.81855 9.68045 7.95253C9.58899 8.08642 9.54184 8.24573 9.54562 8.40787C9.55336 8.5685 9.60496 8.72393 9.695 8.85725C9.78495 8.99058 9.90977 9.09659 10.0559 9.16387V9.19221ZM12.1346 12.0928C12.1346 11.6298 11.8133 11.3558 11.322 11.1479V13.0377C11.554 13.0051 11.7655 12.8874 11.9157 12.7075C12.0658 12.5277 12.1438 12.2985 12.1346 12.0645V12.0928Z" fill="#333333"/>
<path d="M11.0478 1.99219H4.83049C3.8281 1.99219 2.86683 2.39044 2.15803 3.09923C1.44924 3.80804 1.05098 4.76931 1.05098 5.7717V15.2205C1.05098 16.2228 1.44924 17.1842 2.15803 17.8929C2.86683 18.6018 3.8281 19 4.83049 19H16.169C17.1714 19 18.1328 18.6018 18.8415 17.8929C19.5504 17.1842 19.9485 16.2228 19.9485 15.2205V9.485" stroke="#333333" stroke-width="2" stroke-linecap="round" stroke-linejoin="round"/>
<path d="M14.6004 6.34801L19.9484 1" stroke="#333333" stroke-width="2" stroke-linecap="round" stroke-linejoin="round"/>
<path d="M15.6781 1H19.949V5.2803" stroke="#333333" stroke-width="2" stroke-linecap="round" stroke-linejoin="round"/>
</svg>
