<svg width="20" height="20" viewBox="0 0 20 20" fill="none" xmlns="http://www.w3.org/2000/svg">
<path fill-rule="evenodd" clip-rule="evenodd" d="M10.2093 2.08403C9.82384 2.01646 9.29841 2.01134 8.35053 2.01134C6.74586 2.01134 5.60529 2.0127 4.74054 2.13209C3.89338 2.24905 3.4066 2.46845 3.05277 2.83344C2.69846 3.19894 2.48609 3.69956 2.37285 4.56846C2.25717 5.45599 2.25584 6.62595 2.25584 8.27281V11.7274C2.25584 13.3742 2.25717 14.5441 2.37285 15.4317C2.48609 16.3006 2.69846 16.8011 3.05277 17.1666C3.40709 17.5322 3.89237 17.7512 4.73468 17.8681C5.59504 17.9874 6.72918 17.9888 8.32558 17.9888H11.6744C13.2708 17.9888 14.4049 17.9874 15.2653 17.8681C16.1076 17.7512 16.5929 17.5322 16.9472 17.1666C17.3015 16.8011 17.5139 16.3006 17.6271 15.4317C17.7428 14.5441 17.7441 13.3742 17.7441 11.7274V11.3498C17.7441 10.0232 17.7351 9.39443 17.5986 8.92054H14.9783C14.0299 8.92054 13.2548 8.92054 12.643 8.83565C12.0033 8.74695 11.4489 8.55496 11.0062 8.0984C10.5636 7.64179 10.3775 7.06977 10.2915 6.40999C10.2093 5.77877 10.2093 4.97927 10.2093 4.00091V2.08403ZM11.4651 2.7536V3.95454C11.4651 4.99066 11.4664 5.7026 11.5361 6.23736C11.6034 6.75349 11.7238 7.00657 11.8942 7.18236C12.0646 7.35815 12.3099 7.48237 12.8103 7.55176C13.3287 7.62366 14.0188 7.62503 15.0232 7.62503H16.714C16.4657 7.37669 16.1478 7.07914 15.7348 6.69577L12.4205 3.61868C12.0141 3.24141 11.7117 2.96292 11.4651 2.7536ZM8.47251 0.715842C9.6317 0.715522 10.3806 0.715324 11.0699 0.988175C11.7591 1.26104 12.3134 1.77582 13.1707 2.57227C13.2003 2.59977 13.2303 2.6276 13.2606 2.65577L16.5749 5.73284C16.6102 5.7656 16.6451 5.79795 16.6795 5.82989C17.6705 6.74937 18.3113 7.34394 18.6559 8.14233C19.0006 8.94067 19.0004 9.82979 18.9999 11.2047C18.9999 11.2525 18.9999 11.3008 18.9999 11.3498V11.7761C18.9999 13.3632 18.9999 14.6204 18.8718 15.6043C18.7397 16.6168 18.4617 17.4363 17.8352 18.0827C17.2087 18.7291 16.4142 19.0159 15.4326 19.152C14.4789 19.2843 13.2602 19.2843 11.7216 19.2843H8.27835C6.73977 19.2843 5.5211 19.2843 4.56735 19.152C3.58579 19.0159 2.79132 18.7291 2.16478 18.0827C1.53825 17.4363 1.2602 16.6168 1.12824 15.6043C1.00001 14.6204 1.00001 13.3632 1.00003 11.7761V8.22404C1.00001 6.63687 1.00001 5.37972 1.12824 4.39584C1.2602 3.38329 1.53825 2.56373 2.16478 1.91741C2.79181 1.27059 3.58894 0.984064 4.57395 0.848075C5.53168 0.715842 6.7564 0.71585 8.30341 0.715868H8.35053C8.39163 0.715868 8.43232 0.715859 8.47251 0.715842Z" fill="#334D8F"/>
<path fill-rule="evenodd" clip-rule="evenodd" d="M9.57884 14.1979C9.83037 13.9295 9.83037 13.5119 9.57884 13.2436L7.83461 11.3831C7.57108 11.102 7.12957 11.0878 6.84846 11.3513C6.56736 11.6148 6.55312 12.0563 6.81666 12.3374L7.45943 13.023L4.41866 13.0231C4.03335 13.0231 3.72099 13.3354 3.72099 13.7208C3.72099 14.1061 4.03335 14.4184 4.41866 14.4184H7.45943L6.81666 15.104C6.55312 15.3851 6.56736 15.8266 6.84846 16.0902C7.12957 16.3537 7.57108 16.3395 7.83461 16.0583L9.57884 14.1979Z" fill="#334D8F"/>
</svg>
