<svg width="20" height="20" viewBox="0 0 20 20" fill="none" xmlns="http://www.w3.org/2000/svg">
<path d="M2.38575 16.413C1.61916 16.413 1 15.779 1 14.9977V12.0788C1.60442 11.9461 2.09091 11.6365 2.35627 11.209C2.50369 10.9584 2.76904 10.4867 2.76904 10.0002C2.76904 9.54318 2.53317 9.1304 2.37101 8.8503C2.09091 8.40804 1.5602 8.03949 1 7.92155V5.00264C1 4.22131 1.61916 3.5874 2.38575 3.5874H17.5995C18.3661 3.5874 18.9853 4.22131 18.9853 5.00264V7.92155C18.4398 8.05423 17.9681 8.3933 17.6732 8.87979L17.629 8.96824C17.4373 9.27782 17.231 9.61689 17.231 9.98544C17.231 10.354 17.4373 10.7078 17.629 11.0026L17.688 11.0911C17.9828 11.5776 18.4545 11.9314 19 12.0493V14.983C19 15.7643 18.3808 16.3982 17.6143 16.3982H2.38575V16.413ZM6.98526 15.5284H18.1302V12.8896H18.1155C16.9656 12.1673 16.3022 11.1058 16.3022 10.0002C16.3022 8.89453 16.9656 7.8331 18.1155 7.11074H18.1302V4.48667H6.98526V5.82819H5.96806V4.48667H1.85504V6.97807H1.86978C2.73956 7.52352 3.68305 8.59969 3.68305 10.0002C3.68305 11.4007 2.73956 12.4768 1.86978 13.0223H1.85504V15.5284H5.96806V14.1869H6.98526V15.5284Z" fill="#334D8F"/>
<path d="M14.2834 10.6896H12.7437C12.6781 10.6896 12.629 10.7126 12.5635 10.7586C12.5143 10.8045 12.4816 10.7586 12.4816 10.8505C12.4816 10.9425 12.4816 11.0344 12.498 11.1494C12.5143 11.2643 12.5143 11.2413 12.5143 11.3103C12.5143 11.4482 12.5962 11.4942 12.7437 11.4482H14.2506C14.398 11.4482 14.4799 11.5632 14.4799 11.77V12.4597C14.4799 12.6896 14.3653 12.8045 14.1523 12.8045H13.6937C13.579 12.8045 13.448 12.8045 13.317 12.8275C13.1859 12.8505 13.0549 12.8505 12.9566 12.8505H12.7437C12.6126 12.8505 12.5307 12.9655 12.5307 13.1953V14.7815C12.5307 14.8965 12.4652 14.9655 12.3505 14.9655H11.81C11.6134 14.9655 11.5152 14.8505 11.5152 14.5976C11.5152 14.5057 11.5152 14.2988 11.5315 13.9999C11.5479 13.7011 11.5315 13.2643 11.5152 13.1494C11.5152 13.0344 11.4988 12.9655 11.4988 12.9195C11.4824 12.8965 11.4333 12.8735 11.3677 12.8735H9.82801C9.63145 12.8735 9.51679 12.7356 9.51679 12.4137C9.51679 12.3448 9.51679 12.2528 9.50041 12.1609C9.48403 12.0689 9.48403 12.0229 9.50041 11.908C9.51679 11.793 9.54955 11.7011 9.56593 11.5861C9.59869 11.4942 9.66421 11.4712 9.74611 11.4942H11.4169C11.4496 11.4942 11.466 11.4482 11.466 11.3103V10.8505C11.466 10.7356 11.3677 10.6896 11.1876 10.6896H9.72973C9.66421 10.6896 9.61507 10.6896 9.56593 10.6666C9.51679 10.6666 9.50041 10.5976 9.50041 10.4827V10.1379C9.50041 9.95396 9.50041 9.81603 9.48403 9.72407C9.45127 9.58614 9.48403 9.4712 9.54955 9.37924C9.63145 9.28729 9.72973 9.24131 9.86077 9.24131C9.99181 9.2643 10.1228 9.2643 10.2703 9.2643C10.4177 9.24131 10.4341 9.24131 10.516 9.24131H10.7944C10.8927 9.24131 10.9255 9.19534 10.8927 9.10338C10.86 9.05741 10.8436 8.8735 10.6962 8.59764C10.5324 8.29879 10.303 7.81603 10.1229 7.49419C9.92629 7.10338 9.68059 6.6666 9.41851 6.22982C9.30385 5.97695 9.33661 5.77005 9.48403 5.60913C9.56593 5.54016 9.64783 5.44821 9.72973 5.35626C9.81163 5.2643 9.90991 5.14936 10.0246 5.05741C10.172 4.91948 10.3194 5.03442 10.4668 5.42522C10.516 5.51718 10.5979 5.6781 10.7289 5.93097C10.86 6.18384 10.991 6.41373 11.1384 6.71258C11.2695 6.98844 11.4169 7.24131 11.5315 7.44821C11.6626 7.6781 11.7281 7.79304 11.7445 7.83902C11.7772 7.93097 11.8264 7.97695 11.9083 7.99993C11.9902 8.02292 12.0557 7.97695 12.0885 7.88499C12.1048 7.83902 12.1704 7.70108 12.285 7.44821C12.3997 7.21833 12.5307 6.94246 12.6781 6.64361C12.8256 6.34476 12.9566 6.0689 13.0713 5.79304C13.2023 5.54016 13.2678 5.35626 13.3006 5.28729C13.3825 5.12637 13.448 5.03442 13.4971 4.98844C13.5463 4.94246 13.6446 4.96545 13.7756 5.01143C13.8575 5.05741 13.9394 5.12637 14.0213 5.21833C14.1196 5.31028 14.1851 5.37925 14.2015 5.42522C14.3653 5.6781 14.4144 5.88499 14.3489 6.0689C14.3161 6.13787 14.2342 6.32177 14.0868 6.59764C13.9394 6.8735 13.792 7.17235 13.6282 7.4712C13.4644 7.77005 13.317 8.25281 13.1859 8.52867C13.0549 8.80453 12.973 8.96545 12.9566 9.01143C12.9075 9.12637 12.9238 9.19534 13.0221 9.21833C13.104 9.24131 13.1859 9.2643 13.2678 9.2643H14.2179C14.2998 9.2643 14.3653 9.31028 14.4144 9.40223C14.4636 9.49419 14.4963 9.58614 14.4963 9.6781V10.4367C14.5127 10.6206 14.4308 10.6896 14.2834 10.6896ZM5.50368 5.74706H6.66667V9.24131H5.50368V5.74706ZM6.66667 14.8965H5.50368V10.7815H6.66667V14.8965Z" fill="#334D8F"/>
</svg>
