<svg width="33" height="32" viewBox="0 0 33 32" fill="none" xmlns="http://www.w3.org/2000/svg">
<g id="water-tap-faucet_svgrepo.com">
<path id="Vector" d="M1.83331 23.4667C1.83331 22.1213 3.68806 18.8058 4.57344 17.2999C4.77975 16.9489 5.28681 16.9489 5.49319 17.2999C6.37856 18.8058 8.23331 22.1212 8.23331 23.4667C8.23331 25.2341 6.80063 26.6667 5.03331 26.6667C3.266 26.6667 1.83331 25.2341 1.83331 23.4667Z" fill="#72CCC5"/>
<path id="Vector_2" d="M5.56669 25.6C3.79938 25.6 2.36669 24.1673 2.36669 22.4C2.36669 21.7597 2.78694 20.6733 3.32262 19.5481C2.56119 21.008 1.83337 22.6238 1.83337 23.4667C1.83337 25.234 3.26606 26.6667 5.03337 26.6667C6.49831 26.6667 7.73238 25.6819 8.11212 24.3386C7.52744 25.105 6.60506 25.6 5.56669 25.6Z" fill="#11BBA3"/>
<path id="Vector_3" d="M6.1 22.9334C6.68911 22.9334 7.16669 22.4559 7.16669 21.8667C7.16669 21.2776 6.68911 20.8 6.1 20.8C5.51088 20.8 5.03331 21.2776 5.03331 21.8667C5.03331 22.4559 5.51088 22.9334 6.1 22.9334Z" fill="#8FDED7"/>
<path id="Vector_4" d="M13.6 0C8.01244 0 3.46669 4.54581 3.46669 10.1333V12.2666C3.46669 13.1488 4.1845 13.8666 5.06669 13.8666C5.94887 13.8666 6.66669 13.1488 6.66669 12.2666V10.1333C6.66669 6.31025 9.77694 3.2 13.6 3.2C17.4231 3.2 20.5333 6.31025 20.5333 10.1333V22.9333C20.5333 23.8155 21.2511 24.5333 22.1333 24.5333C23.0155 24.5333 23.7333 23.8155 23.7333 22.9333V10.1333C23.7333 4.54581 19.1876 0 13.6 0Z" fill="#D1CDB2"/>
<path id="Vector_5" d="M7.16669 14.9333H2.9C2.60544 14.9333 2.36669 14.6945 2.36669 14.4V12.2667C2.36669 11.9721 2.6055 11.7334 2.9 11.7334H7.16669C7.46125 11.7334 7.7 11.9722 7.7 12.2667V14.4C7.7 14.6946 7.46119 14.9333 7.16669 14.9333Z" fill="#E8E6D9"/>
<path id="Vector_6" d="M2.9 11.7333C2.60544 11.7333 2.36669 11.9721 2.36669 12.2666V14.4C2.36669 14.6945 2.6055 14.9333 2.9 14.9333H3.43331V11.7333H2.9Z" fill="#BAB48C"/>
<g id="Group">
<path id="Vector_7" d="M5.0555 11.7333H3.43331V14.9333H5.0555V11.7333Z" fill="#D1CDB2"/>
<path id="Vector_8" d="M7.16669 11.7333H6.12219V14.9333H7.16663C7.46119 14.9333 7.69994 14.6945 7.69994 14.4V12.2667C7.7 11.9721 7.46119 11.7333 7.16669 11.7333Z" fill="#D1CDB2"/>
</g>
<path id="Vector_9" d="M28.0582 24.4419L23.6085 28.8916C22.7754 29.7247 21.4246 29.7247 20.5915 28.8916L16.1418 24.4419C15.3087 23.6087 15.3087 22.258 16.1418 21.4249L20.5915 16.9752C21.4246 16.1421 22.7754 16.1421 23.6085 16.9752L28.0582 21.4249C28.8913 22.258 28.8913 23.6088 28.0582 24.4419Z" fill="#E8E6D9"/>
<path id="Vector_10" d="M22.1 28.4497C21.8151 28.4497 21.5472 28.3388 21.3458 28.1374L16.8961 23.6876C16.6947 23.4862 16.5837 23.2183 16.5837 22.9334C16.5837 22.6486 16.6946 22.3806 16.8961 22.1792L21.3458 17.7295C21.5472 17.5281 21.8151 17.4171 22.1 17.4171C22.3849 17.4171 22.6528 17.5281 22.8542 17.7295L27.3039 22.1792C27.5053 22.3806 27.6163 22.6486 27.6163 22.9334C27.6163 23.2183 27.5054 23.4862 27.3039 23.6876L22.8542 28.1374C22.6528 28.3388 22.3849 28.4497 22.1 28.4497Z" fill="#D1CDB2"/>
<path id="Vector_11" d="M22.1 26.6666C24.1619 26.6666 25.8333 24.9951 25.8333 22.9333C25.8333 20.8714 24.1619 19.2 22.1 19.2C20.0381 19.2 18.3667 20.8714 18.3667 22.9333C18.3667 24.9951 20.0381 26.6666 22.1 26.6666Z" fill="#DDDAC5"/>
<path id="Vector_12" d="M22.1 26.1333C23.8673 26.1333 25.3 24.7006 25.3 22.9333C25.3 21.166 23.8673 19.7333 22.1 19.7333C20.3327 19.7333 18.9 21.166 18.9 22.9333C18.9 24.7006 20.3327 26.1333 22.1 26.1333Z" fill="#FFC552"/>
<path id="Vector_13" d="M22.1 25.0667C23.2782 25.0667 24.2333 24.1116 24.2333 22.9334C24.2333 21.7552 23.2782 20.8 22.1 20.8C20.9218 20.8 19.9667 21.7552 19.9667 22.9334C19.9667 24.1116 20.9218 25.0667 22.1 25.0667Z" fill="#FC9C47"/>
<path id="Vector_14" d="M24.9332 14.3183C24.6536 14.2261 24.3519 14.3785 24.26 14.6584C24.168 14.9382 24.3202 15.2397 24.6001 15.3316C27.8898 16.4128 30.1 19.4678 30.1 22.9333C30.1 27.3445 26.5112 30.9333 22.1 30.9333C17.6888 30.9333 14.1 27.3445 14.1 22.9333C14.1 21.6625 14.3977 20.4288 14.9653 19.313L15.177 20.3713C15.2348 20.6598 15.5264 20.8507 15.8139 20.7876C16.0942 20.726 16.2793 20.4437 16.2229 20.162L15.6896 17.4953C15.6254 17.1737 15.2737 16.9827 14.9686 17.1048L12.3019 18.1715C12.0284 18.2808 11.8953 18.5913 12.0048 18.8647C12.1141 19.1383 12.4245 19.2713 12.698 19.1618L14.1447 18.5831C13.4163 19.9118 13.0334 21.3989 13.0334 22.9332C13.0333 27.9327 17.1007 32 22.1 32C27.0993 32 31.1667 27.9327 31.1667 22.9333C31.1667 19.006 28.6617 15.5438 24.9332 14.3183Z" fill="#8FDED7"/>
</g>
</svg>
